<svg xmlns="http://www.w3.org/2000/svg" width="640" height="640" viewBox="0 0 640 640" version="1.1">
	<path d="M 316.765 33.568 C 316.537 33.796, 313.460 34.017, 309.926 34.061 C 298.824 34.196, 276.458 39.466, 265.500 44.528 C 263.850 45.291, 258.900 47.542, 254.500 49.531 C 250.100 51.520, 245.068 54.240, 243.317 55.574 C 241.566 56.908, 239.874 58, 239.557 58 C 238.134 58, 223.611 69.518, 217.858 75.209 C 210.308 82.679, 204 90.255, 204 91.853 C 204 92.484, 203.610 93, 203.133 93 C 201.743 93, 189.759 111.912, 185.357 121.051 C 181.499 129.061, 176.995 140.464, 176.998 142.216 C 176.999 143.160, 176.377 145.410, 175.616 147.216 C 174.175 150.634, 172.075 158.681, 171.497 163 C 168.877 182.565, 168.737 199.916, 171.053 217.822 C 171.574 221.850, 172 226.610, 172 228.401 L 172 231.657 160.781 233.911 C 144.879 237.105, 145.689 236.348, 146.180 247.563 L 146.590 256.933 150.341 260.217 C 153.742 263.193, 154.493 264.855, 158.376 278 C 162.817 293.029, 165.374 298.979, 169.973 304.980 C 172.593 308.399, 172.676 308.916, 172.851 323 C 173.331 361.546, 174.836 380.390, 178.281 391 C 179.620 395.125, 182.130 403.450, 183.860 409.500 C 187.411 421.925, 192.557 433.451, 193.190 430.394 C 193.435 429.209, 194.029 430.239, 194.778 433.144 C 195.437 435.698, 198.013 441.098, 200.504 445.144 C 202.994 449.190, 206.890 456.325, 209.160 461 C 211.430 465.675, 213.847 469.831, 214.530 470.236 C 215.213 470.641, 216.076 472.591, 216.447 474.570 C 216.898 476.972, 217.561 477.999, 218.443 477.660 C 219.313 477.326, 220.663 479.265, 222.392 483.326 C 223.836 486.722, 226.169 490.850, 227.576 492.500 L 230.133 495.500 229.568 492.500 C 229.043 489.715, 229.155 489.783, 231.131 493.457 C 232.302 495.633, 232.852 497.549, 232.355 497.715 C 231.857 497.881, 226.088 501.150, 219.535 504.980 C 212.982 508.809, 201.294 514.720, 193.560 518.114 C 176.548 525.583, 170.769 528.385, 152 538.268 C 144.025 542.467, 131.650 548.534, 124.500 551.750 C 117.350 554.966, 108.350 559.450, 104.500 561.715 C 97.291 565.956, 88.548 572.881, 89.368 573.701 C 89.622 573.956, 98.081 570.699, 108.165 566.465 C 118.249 562.230, 129.650 557.442, 133.500 555.825 C 137.350 554.208, 146.575 549.679, 154 545.761 C 172.157 536.178, 183.004 530.891, 194.710 525.919 C 208.518 520.053, 214.179 517.075, 224.807 510.084 C 229.926 506.717, 234.613 503.858, 235.223 503.731 C 235.833 503.604, 236.876 506.121, 237.543 509.332 C 238.513 513.999, 238.495 516.026, 237.457 519.476 C 235.006 527.620, 233.799 542.318, 234.919 550.373 C 238.059 572.950, 249.259 585.206, 273.527 592.621 C 281.460 595.046, 284.123 595.366, 296.500 595.385 C 323.159 595.427, 344.654 588.116, 379 567.327 C 410.579 548.212, 429.598 530.734, 447.223 504.631 C 458.552 487.853, 463.201 475.089, 459.480 470.978 C 458.495 469.890, 458.187 469, 458.794 469 C 459.402 469, 465.434 474.207, 472.199 480.571 C 486.270 493.806, 491.808 497.655, 512 508.233 C 519.975 512.410, 531.675 518.825, 538 522.488 C 551.778 530.468, 575.372 542.016, 577.778 541.959 C 578.975 541.930, 578.128 540.675, 575 537.840 C 565.144 528.909, 548.251 518.563, 514.500 500.789 C 496.305 491.206, 487.464 485.062, 474.127 472.732 C 466.707 465.872, 464.871 464.704, 458.408 462.732 C 451.318 460.570, 451.013 460.344, 448.633 455.500 C 443.654 445.366, 443.487 444.066, 443.704 417.151 C 443.848 399.387, 444.359 389.512, 445.414 384.151 C 446.241 379.943, 447.214 372.409, 447.576 367.408 L 448.233 358.316 453.069 358.781 C 459.049 359.355, 465.298 356.085, 469.253 350.313 C 473.745 343.756, 482.071 323.276, 488.282 303.500 C 494.932 282.328, 496.271 272.117, 494.061 259.429 C 491.750 246.159, 486.695 240.617, 477.500 241.275 C 474.750 241.471, 471.738 241.978, 470.807 242.401 C 469.278 243.096, 469.224 242.800, 470.249 239.335 C 473.112 229.656, 470.578 170.377, 466.494 151.509 C 463.891 139.481, 457.969 121.065, 455.833 118.356 C 455.337 117.727, 453.576 114.577, 451.921 111.356 C 447.735 103.214, 446.528 101.196, 444.661 99.219 C 440.589 94.907, 438 91.633, 438 90.795 C 438 90.293, 437.550 90.160, 437 90.500 C 436.450 90.840, 436 90.427, 436 89.582 C 436 88.737, 434.949 87.358, 433.665 86.516 C 432.381 85.675, 430.730 83.865, 429.996 82.493 C 429.263 81.122, 428.049 80, 427.300 80 C 426.550 80, 425.687 79.348, 425.381 78.551 C 424.407 76.011, 407.528 63.213, 397.574 57.467 C 386.046 50.811, 375.446 46.178, 360 41.044 C 345.169 36.115, 340.708 35.091, 331.260 34.448 C 326.992 34.158, 322.078 33.748, 320.339 33.537 C 318.601 33.327, 316.992 33.341, 316.765 33.568 M 356.260 93.576 C 354.477 94.981, 352.610 95.877, 352.111 95.569 C 351.611 95.260, 349.255 95.879, 346.875 96.944 C 342.304 98.991, 340.994 98.917, 342.821 96.715 C 343.565 95.819, 341.728 96.101, 337.214 97.575 C 330.128 99.888, 327.680 99.794, 330.690 97.322 C 332.413 95.908, 332.404 95.869, 330.500 96.504 C 323.187 98.943, 316.351 100.971, 315.500 100.954 C 314.950 100.943, 315.625 99.974, 317 98.801 C 318.999 97.095, 319.099 96.824, 317.500 97.449 C 316.400 97.878, 313.090 99.098, 310.145 100.160 C 307.200 101.222, 303.713 102.797, 302.395 103.661 C 299.857 105.324, 299.151 104.324, 301.250 102.040 C 301.938 101.292, 300.872 101.652, 298.882 102.840 C 294.643 105.371, 293.579 105.538, 294.340 103.555 C 294.673 102.690, 293.034 103.291, 290.252 105.055 C 284.451 108.734, 281.294 108.998, 285.306 105.468 C 288.706 102.477, 288.162 102.367, 283 105 C 278.326 107.385, 277.606 107.469, 278.345 105.543 C 278.798 104.362, 278.427 104.268, 276.387 105.043 C 273.023 106.322, 272.686 106.261, 273.365 104.491 C 273.830 103.279, 273.325 103.090, 270.808 103.534 C 269.083 103.838, 267.408 103.685, 267.086 103.195 C 266.152 101.773, 255 100.771, 255 102.108 C 255 102.819, 254.171 102.972, 252.750 102.523 C 249.464 101.487, 245.583 101.331, 244.949 102.210 C 244.646 102.630, 242.884 102.540, 241.034 102.010 C 239.183 101.479, 236.667 101.296, 235.442 101.604 C 234.218 101.911, 231.839 101.451, 230.157 100.581 C 226.420 98.649, 223.919 98.489, 226.456 100.345 C 228.053 101.512, 227.538 101.626, 222.539 101.212 C 219.373 100.949, 216.494 101.132, 216.141 101.617 C 215.789 102.103, 213.751 103.391, 211.614 104.481 C 209.097 105.764, 205.969 108.934, 202.735 113.481 C 197.639 120.643, 189.342 136.862, 187.931 142.418 C 184.993 153.982, 183.286 161.967, 183.131 164.861 C 183.032 166.710, 182.584 168.960, 182.135 169.861 C 181.687 170.763, 181.452 173.481, 181.613 175.902 C 181.775 178.324, 181.482 181.100, 180.962 182.072 C 180.340 183.233, 180.378 183.959, 181.070 184.190 C 181.809 184.436, 181.807 185.376, 181.065 187.328 C 180.270 189.421, 180.297 189.935, 181.173 189.393 C 181.987 188.890, 182.117 189.250, 181.601 190.586 C 178.347 199.021, 175.755 226.469, 177.894 229.857 C 179.201 231.929, 184.467 230.364, 186.033 227.439 C 187.890 223.968, 196.782 215.981, 200.437 214.501 C 204.760 212.750, 232.016 214.136, 237.372 216.379 C 241.900 218.275, 242.327 218.339, 241.500 217 C 240.521 215.416, 242.689 215.829, 246.739 218 C 248.791 219.100, 250.963 220, 251.566 220 C 252.810 220, 259 228.255, 259 229.913 C 259 231.417, 256.281 231.284, 255.662 229.750 C 255.361 229.003, 255.126 229.205, 255.079 230.250 C 255.036 231.213, 254.662 231.947, 254.250 231.882 C 250.539 231.296, 253.019 232.597, 260.500 235.162 C 268.016 237.739, 271.149 238.268, 279.500 238.374 C 288.483 238.487, 290.771 238.107, 302 234.637 C 318.900 229.414, 319.418 229.178, 314.500 228.949 C 312.300 228.847, 309.938 228.836, 309.250 228.925 C 308.563 229.015, 307.993 228.055, 307.985 226.794 C 307.973 224.989, 307.771 224.814, 307.039 225.971 C 306.527 226.780, 305.794 227.128, 305.410 226.743 C 304.420 225.754, 307.252 218.749, 308.858 218.214 C 309.910 217.863, 309.961 218.205, 309.097 219.819 C 307.096 223.558, 307.961 223.521, 310.519 219.757 C 311.905 217.718, 313.962 215.556, 315.090 214.952 C 317.121 213.865, 317.123 213.883, 315.321 216.677 C 313.650 219.269, 313.863 219.193, 317.930 215.750 C 322.723 211.693, 324.293 211.073, 323.314 213.624 C 322.748 215.098, 322.913 215.109, 325.095 213.737 C 327.672 212.117, 335.901 210.195, 340 210.255 C 348.280 210.378, 366.857 208.578, 366.318 207.705 C 364.927 205.454, 375.260 207.952, 383.383 211.830 C 391.771 215.835, 401 223.002, 401 225.512 C 401 226.297, 403.160 227.026, 406.750 227.452 C 409.913 227.827, 414.132 228.556, 416.127 229.072 C 418.122 229.589, 424.551 230.819, 430.413 231.806 L 441.072 233.600 440.451 225.050 C 439.939 217.996, 439.156 215.061, 435.974 208.276 C 433.853 203.753, 429.590 196.634, 426.501 192.458 C 420.701 184.615, 418.712 181.086, 420.830 182.395 C 422.453 183.398, 422.292 182.375, 420.365 179.434 C 418.436 176.491, 419.214 175.123, 421.687 177.107 C 422.919 178.097, 422.781 177.586, 421.211 175.346 C 418.209 171.063, 418.381 169.070, 421.500 172 C 424.519 174.836, 424.674 174.153, 422.004 169.774 C 419.435 165.561, 419.258 163.143, 421.664 165.128 C 423.168 166.368, 423.216 166.290, 422.164 164.316 C 420.503 161.199, 420.719 159.246, 422.468 161.559 C 424.348 164.045, 424.370 162.272, 422.500 159 C 420.809 156.043, 420.566 153.613, 422.051 154.532 C 422.630 154.889, 422.405 153.511, 421.551 151.469 C 419.603 146.805, 419.596 145.631, 421.523 146.371 C 422.751 146.841, 422.848 146.585, 422.027 145.051 C 421.466 144.003, 420.771 141.201, 420.481 138.823 C 420.191 136.445, 419.840 133.600, 419.700 132.500 C 419.560 131.400, 418.880 129.488, 418.188 128.250 C 417.319 126.697, 417.272 126, 418.036 126 C 418.645 126, 418.432 125.289, 417.562 124.419 C 416.693 123.550, 416.206 122.476, 416.480 122.033 C 416.754 121.589, 416.354 120.709, 415.592 120.077 C 414.830 119.444, 414.404 118.156, 414.646 117.213 C 415.074 115.547, 408.743 108, 406.917 108 C 406.447 108, 406.306 107.366, 406.604 106.590 C 406.929 105.743, 406.318 104.918, 405.072 104.523 C 403.933 104.161, 403 103.269, 403 102.540 C 403 101.061, 400.853 100, 397.859 100 C 396.772 100, 396.160 99.550, 396.500 99 C 396.851 98.433, 396.010 98, 394.559 98 C 392.951 98, 392 97.443, 392 96.500 C 392 94.745, 390.753 94.637, 386.060 95.983 C 381.949 97.162, 380.748 96.397, 383.502 94.353 C 385.346 92.985, 385.148 92.911, 380.945 93.392 C 378.439 93.679, 375.627 94.206, 374.695 94.564 C 372.709 95.326, 372.458 93.951, 374.250 92.129 C 374.938 91.430, 373.185 92.015, 370.355 93.429 C 364.976 96.117, 362.452 96.695, 363.500 95 C 364.339 93.643, 363.730 93.739, 360.364 95.494 C 355.596 97.981, 354.322 97.317, 357.500 94 C 361.013 90.334, 360.567 90.181, 356.260 93.576 M 368.698 221.636 C 368.589 221.745, 364.338 222.298, 359.252 222.866 C 354.165 223.434, 349.366 224.259, 348.588 224.699 C 347.809 225.140, 358.495 225.515, 372.336 225.534 C 395.960 225.566, 397.072 225.488, 390.500 224.253 C 383.764 222.988, 369.106 221.228, 368.698 221.636 M 202.500 228 C 200.458 228.520, 202.375 228.769, 208.500 228.782 C 214.397 228.794, 216.638 228.525, 215 228 C 211.877 227, 206.431 227, 202.500 228 M 340.230 234.030 C 329.883 235.340, 316.251 238.740, 311.060 241.306 C 304.100 244.746, 302.477 247.732, 302.620 256.834 C 302.828 270.028, 311.072 290.124, 319.442 297.839 C 326.202 304.071, 333.079 306.102, 349.577 306.738 C 370.283 307.536, 388.823 304.231, 394.847 298.668 C 399.980 293.927, 403.508 282.236, 404.647 266.193 C 406.642 238.091, 402.292 234.358, 366.612 233.544 C 356.101 233.305, 344.228 233.523, 340.230 234.030 M 423.747 240.750 C 424.439 249.778, 425 249.965, 425 241.167 C 425 237.225, 424.602 234, 424.115 234 C 423.628 234, 423.463 237.037, 423.747 240.750 M 187 238.133 C 173.845 240.283, 166.831 243.951, 164.944 249.670 C 163.272 254.737, 164.259 269.565, 166.961 279.982 C 172.672 302, 178.751 306.977, 202.500 309.079 C 214.695 310.159, 228.407 309.092, 238.470 306.281 C 242.875 305.050, 245.526 303.526, 248.585 300.468 C 258.523 290.530, 265.776 257.705, 260.094 248.387 C 255.445 240.763, 239.110 236.979, 211.500 237.130 C 201.050 237.187, 190.025 237.638, 187 238.133 M 188.214 239.710 C 186.243 240.088, 185.960 240.691, 186.159 244.074 C 186.304 246.517, 186.884 248, 187.696 248 C 188.413 248, 189 247.556, 189 247.013 C 189 246.471, 190.688 244.458, 192.750 242.541 L 196.500 239.054 193.500 239.163 C 191.850 239.223, 189.471 239.470, 188.214 239.710 M 178.750 241.790 C 177.407 242.064, 177 243.156, 177 246.490 L 177 250.834 173.048 248.669 C 167.957 245.881, 166.780 246.977, 166.621 254.655 L 166.500 260.450 171 261.475 C 177.886 263.043, 178.282 263.516, 177.623 269.371 C 177.305 272.192, 176.940 279.725, 176.811 286.110 C 176.617 295.771, 176.854 297.997, 178.225 299.368 C 179.131 300.274, 180.119 300.617, 180.420 300.130 C 181.377 298.580, 182.257 245.587, 181.360 243.467 C 180.849 242.259, 179.789 241.578, 178.750 241.790 M 341.281 243.012 C 335.542 243.850, 327.946 247.811, 325.569 251.205 C 324.731 252.401, 324.212 253.546, 324.415 253.749 C 324.619 253.952, 328.321 252.278, 332.642 250.028 C 339.319 246.553, 341.702 245.853, 348.500 245.373 C 360.484 244.527, 367.971 246.132, 377.286 251.545 C 381.635 254.072, 385.397 255.937, 385.645 255.689 C 385.893 255.441, 384.197 253.613, 381.877 251.627 C 373.123 244.133, 357.011 240.714, 341.281 243.012 M 473.500 246.395 C 471.850 247.119, 468.392 249.326, 465.815 251.300 C 462.828 253.587, 460.965 254.455, 460.677 253.694 C 460.070 252.089, 456.449 260.210, 454.493 267.563 C 453.049 272.995, 452.037 286.705, 450.552 321 C 450.255 327.875, 449.732 337.632, 449.392 342.683 L 448.772 351.867 452.265 352.522 C 456.184 353.257, 460.163 351.627, 463.682 347.845 C 468.081 343.118, 476.694 321.910, 485.144 295 C 489.122 282.332, 489.386 280.761, 489.427 269.500 C 489.466 258.898, 489.198 256.943, 487.133 252.723 C 484.938 248.237, 480.939 244.945, 477.800 245.039 C 477.085 245.061, 475.150 245.671, 473.500 246.395 M 217.550 247.606 C 209.834 249.471, 203.648 253.153, 200.539 257.728 C 199.172 259.740, 198.257 261.590, 198.506 261.839 C 198.755 262.089, 200.942 260.465, 203.365 258.231 C 209.860 252.245, 212.987 250.892, 224.803 248.956 C 231.752 247.818, 240.003 249.356, 246.928 253.081 C 249.913 254.686, 252.804 256, 253.352 256 C 255.392 256, 249.486 250.923, 244.634 248.505 C 240.454 246.422, 238.250 246.014, 231.554 246.083 C 227.124 246.129, 220.822 246.814, 217.550 247.606 M 340.817 250.495 C 336.317 252.149, 322 261.687, 322 263.030 C 322 264.211, 320.651 264.147, 342.500 264.012 C 352.400 263.951, 363.650 263.417, 367.500 262.826 C 371.350 262.236, 375.175 261.806, 376 261.872 C 388.111 262.838, 392.108 262.884, 394.112 262.082 C 396.132 261.274, 395.745 261.117, 391.596 261.063 C 387.983 261.017, 385.088 260.114, 380.596 257.632 C 368.719 251.070, 361.982 248.993, 352.829 249.070 C 348.248 249.109, 342.842 249.750, 340.817 250.495 M 222.363 251.997 C 217.457 253.017, 207.476 257.903, 203.399 261.279 C 201.805 262.600, 199.600 264.188, 198.500 264.810 C 196.756 265.795, 196.724 265.943, 198.250 265.970 C 201.367 266.024, 200.102 267.890, 196.489 268.568 C 194.558 268.930, 192.731 269.626, 192.430 270.113 C 191.317 271.914, 196.660 270.923, 201.254 268.478 C 205.652 266.136, 206.442 266.028, 212.246 266.967 C 219.897 268.205, 255.790 267.149, 256.711 265.659 C 257.649 264.141, 250.369 258.275, 243.510 255.024 C 236.837 251.861, 228.652 250.689, 222.363 251.997 M 420.314 253.950 C 415.958 256.606, 415.242 258.285, 412.940 271.240 C 409.087 292.928, 404.418 302.705, 395.822 307.091 C 387.310 311.433, 377.460 313.175, 358.263 313.734 C 319.759 314.855, 311.601 309.327, 295.936 271.500 C 294.114 267.100, 291.337 262.207, 289.766 260.627 C 287.191 258.039, 286.409 257.802, 281.871 258.238 C 274.192 258.976, 272.981 260.754, 271.366 273.667 C 269.372 289.610, 266.236 304.670, 263.453 311.671 C 261.879 315.629, 261 319.841, 261 323.421 C 261 328.802, 259.865 330.698, 258.607 327.418 C 257.408 324.295, 258.041 319.129, 260.389 312.869 C 262.606 306.956, 266.463 288.129, 265.628 287.294 C 265.424 287.091, 263.689 290.227, 261.772 294.264 C 254.620 309.325, 248.719 313.064, 228 315.661 C 216.508 317.102, 212.612 317.183, 201.807 316.206 C 194.497 315.545, 186.682 314.203, 183.378 313.042 C 180.223 311.933, 177.462 311.205, 177.243 311.424 C 175.859 312.808, 181.349 356.770, 183.060 358 C 183.442 358.275, 184.102 360.525, 184.525 363 C 184.949 365.475, 185.491 366.938, 185.731 366.250 C 186.724 363.402, 188.005 365.319, 188.070 369.750 C 188.118 372.979, 188.382 373.883, 188.895 372.573 C 189.596 370.785, 189.699 370.773, 190.325 372.405 C 190.696 373.372, 191.032 375.139, 191.070 376.332 C 191.136 378.353, 191.192 378.369, 191.895 376.573 C 192.596 374.785, 192.699 374.773, 193.325 376.405 C 193.696 377.372, 194.053 379.364, 194.118 380.832 C 194.236 383.475, 194.243 383.472, 194.956 380.500 C 195.674 377.505, 195.676 377.504, 196.299 380 C 196.642 381.375, 197.112 383.400, 197.345 384.500 C 197.648 385.935, 197.801 385.723, 197.884 383.750 C 198.085 378.976, 199.678 380.762, 201.005 387.250 C 202.259 393.380, 204 397.129, 204 393.700 C 204 392.765, 204.450 392, 205 392 C 205.550 392, 206 393.152, 206 394.559 C 206 395.966, 206.437 396.848, 206.971 396.518 C 207.505 396.188, 208.221 397.174, 208.564 398.709 C 208.906 400.244, 209.448 402.400, 209.769 403.500 C 210.304 405.332, 210.410 405.290, 211.027 403 C 211.681 400.576, 211.733 400.607, 212.760 404 C 213.439 406.241, 213.868 406.781, 213.955 405.500 C 214.064 403.894, 214.361 404.091, 215.464 406.500 L 216.838 409.500 216.919 404.332 C 216.963 401.489, 217.273 398.452, 217.607 397.582 C 217.941 396.712, 217.716 396, 217.107 396 C 216.498 396, 215.993 396.788, 215.985 397.750 C 215.972 399.246, 215.828 399.282, 215 398 C 214.467 397.175, 214.024 395.543, 214.015 394.372 C 214.007 393.202, 213.384 391.733, 212.630 391.108 C 210.954 389.717, 209.858 370.113, 211.187 365.290 C 211.674 363.525, 214.106 359.475, 216.593 356.290 C 219.080 353.106, 223.403 347.451, 226.199 343.725 C 228.995 339.998, 231.474 337.140, 231.707 337.374 C 232.355 338.021, 226.270 348.606, 220.392 357.056 C 217.501 361.212, 214.838 365.937, 214.475 367.556 L 213.815 370.500 215.767 367.457 C 217.794 364.298, 222.072 361.016, 224.879 360.469 C 225.770 360.295, 226.725 360.065, 227 359.958 C 227.275 359.851, 227.794 359.802, 228.154 359.850 C 228.514 359.897, 229.356 359.275, 230.027 358.468 C 231.387 356.829, 233.467 356.435, 232.500 358 C 231.497 359.623, 233.309 359.105, 236 357 C 238.969 354.678, 240.760 354.379, 239 356.500 C 236.738 359.226, 238.601 358.061, 243 354 C 247.455 349.887, 250.729 348.432, 247.500 352 C 245.062 354.693, 246.148 354.518, 250.595 351.500 C 254.368 348.940, 257.646 348.146, 256.449 350.083 C 256.081 350.678, 257.192 350.435, 258.918 349.543 C 262.855 347.507, 267.661 348.286, 271.496 351.581 C 273.044 352.912, 275.329 354, 276.572 354 C 277.816 354, 279.002 354.507, 279.209 355.127 C 279.415 355.746, 280.690 356.364, 282.042 356.499 C 283.394 356.634, 284.837 356.802, 285.250 356.872 C 285.663 356.943, 286.018 358.012, 286.039 359.250 C 286.073 361.223, 286.240 361.130, 287.388 358.500 C 288.279 356.458, 289.932 355.056, 292.562 354.108 C 294.688 353.343, 297.064 352.079, 297.842 351.301 C 298.621 350.522, 299.875 350.122, 300.629 350.411 C 301.424 350.716, 302 350.292, 302 349.401 C 302 348.290, 302.588 348.052, 304.125 348.540 C 305.611 349.011, 306.033 348.863, 305.529 348.047 C 304.693 346.695, 311.624 347.031, 313.928 348.455 C 314.864 349.034, 315.079 348.937, 314.595 348.155 C 313.409 346.235, 315.499 346.849, 319.584 349.621 C 321.708 351.063, 322.832 351.502, 322.081 350.597 C 319.886 347.953, 321.763 347.449, 324.972 349.821 C 328.386 352.345, 329.793 352.661, 328 350.500 C 325.979 348.065, 328.539 348.741, 331.833 351.513 L 334.820 354.026 334.274 351.763 C 333.857 350.032, 334.611 350.509, 337.483 353.798 C 341.324 358.194, 343.042 358.815, 341.046 355.086 C 340.095 353.309, 340.213 353, 341.842 353 C 342.894 353, 344.336 353.700, 345.045 354.555 C 345.755 355.410, 347.194 356.569, 348.243 357.130 C 349.941 358.039, 350.033 357.930, 349.076 356.141 C 347.618 353.418, 347.723 352.525, 349.342 353.869 C 350.080 354.481, 350.954 354.712, 351.284 354.382 C 351.615 354.052, 353.342 354.819, 355.123 356.088 C 356.904 357.356, 357.978 357.742, 357.509 356.947 C 357.038 356.147, 357.628 356.352, 358.828 357.405 C 360.979 359.292, 361 359.288, 361 357.036 L 361 354.763 364.420 357.371 C 366.810 359.194, 367.993 359.606, 368.348 358.740 C 368.876 357.453, 372.890 361.174, 376.198 366.015 C 377.883 368.482, 377.886 368.475, 376.698 365 C 375.968 362.867, 371.789 357.780, 366 351.976 C 355.519 341.468, 348.245 333, 349.701 333 C 350.218 333, 353.591 336.038, 357.195 339.750 C 360.799 343.462, 366.491 348.626, 369.843 351.225 C 373.196 353.824, 377.190 357.841, 378.719 360.152 C 381.332 364.099, 381.500 365.012, 381.500 375.213 C 381.500 381.995, 381.088 386.341, 380.403 386.786 C 379.063 387.658, 377.707 399.719, 378.897 400.174 C 379.365 400.353, 379.170 402.750, 378.462 405.500 C 376.664 412.494, 377.420 412.295, 380.050 405.083 C 381.270 401.737, 382.613 399, 383.034 399 C 383.456 399, 382.966 402.245, 381.945 406.212 C 380.925 410.178, 380.266 413.599, 380.479 413.813 C 380.693 414.027, 381.380 412.244, 382.005 409.851 C 384.649 399.728, 385.341 397.934, 386.120 399.195 C 386.609 399.985, 387.162 398.838, 387.593 396.145 C 387.972 393.771, 388.894 391.594, 389.642 391.307 C 390.389 391.021, 391 389.709, 391 388.393 C 391 385.358, 392.966 385.224, 393.099 388.250 C 393.161 389.668, 393.704 388.836, 394.567 386 C 395.320 383.525, 396.363 380.779, 396.885 379.897 C 397.406 379.015, 398.147 376.203, 398.530 373.647 C 399.290 368.579, 400.952 367.342, 401.079 371.750 L 401.158 374.500 402.278 371.500 L 403.397 368.500 404.586 374 L 405.776 379.500 405.888 372.917 C 406.019 365.203, 406.974 363.569, 408.649 368.191 L 409.848 371.500 409.924 367.250 C 410.013 362.258, 411.693 361.544, 412.277 366.250 C 412.631 369.109, 412.699 368.996, 412.840 365.309 C 413.030 360.337, 414.684 358.755, 415.558 362.709 C 415.897 364.244, 416.550 366.625, 417.009 368 C 417.703 370.084, 417.855 369.731, 417.921 365.875 C 417.964 363.331, 418.313 359.731, 418.696 357.875 L 419.392 354.500 420.666 358.500 L 421.940 362.500 421.877 358 C 421.786 351.478, 421.881 351.278, 423.909 353.707 C 426.364 356.648, 426.985 355.742, 427.079 349.083 C 427.122 346.012, 427.385 344.063, 427.662 344.750 C 428.727 347.390, 430.004 345.818, 430.100 341.750 C 430.225 336.425, 431.199 332.858, 432.500 332.962 C 433.050 333.006, 433.640 331.457, 433.810 329.521 C 433.981 327.584, 434.514 326, 434.994 326 C 435.475 326, 435.654 324.820, 435.392 323.377 C 435.044 321.458, 435.280 320.893, 436.270 321.273 C 437.248 321.649, 437.516 321.060, 437.238 319.146 C 437.026 317.691, 437.391 315.150, 438.049 313.500 C 439.363 310.205, 439.423 309.855, 441.099 295.693 C 442.042 287.732, 442.539 285.993, 443.741 286.454 C 444.739 286.837, 445.042 286.553, 444.670 285.582 C 443.092 281.470, 442.665 276.873, 442.181 258.750 L 442 252 432.750 252.004 C 425.355 252.007, 422.861 252.397, 420.314 253.950 M 355 254.500 C 355 255.325, 355.675 256, 356.500 256 C 357.325 256, 358 255.325, 358 254.500 C 358 253.675, 357.325 253, 356.500 253 C 355.675 253, 355 253.675, 355 254.500 M 336.819 256.583 C 330.624 259.739, 330.180 260.779, 334.722 261.491 C 336.800 261.817, 339.744 262.280, 341.263 262.520 C 343.832 262.925, 343.980 262.763, 343.365 260.228 C 341.831 253.909, 341.944 253.972, 336.819 256.583 M 474.709 256.014 C 468.198 261.136, 455.970 281.311, 454.443 289.453 C 454.067 291.456, 454.597 294.442, 455.929 297.821 C 458.648 304.718, 458.561 306.118, 454.945 313.772 C 450.116 323.993, 452.388 330.394, 457.739 321.644 C 459.801 318.271, 461.362 316.918, 463.905 316.299 C 466.689 315.621, 467.561 314.744, 468.694 311.485 C 469.456 309.293, 469.949 306.150, 469.790 304.500 C 469.517 301.676, 469.342 301.838, 466.805 307.250 C 465.323 310.413, 463.673 313, 463.137 313 C 462.602 313, 461.443 313.276, 460.563 313.614 C 459.200 314.137, 459.114 313.830, 459.981 311.549 C 461.458 307.664, 461.244 303.152, 459.327 297.806 C 458.067 294.288, 457.904 292.533, 458.678 290.806 C 459.665 288.604, 459.842 288.736, 462.606 293.736 C 464.198 296.615, 465.841 298.978, 466.259 298.986 C 467.706 299.013, 465.791 287.486, 463.900 284.790 C 462.855 283.300, 462 281.662, 462 281.150 C 462 280.638, 464.695 276.115, 467.989 271.099 C 472.292 264.544, 474.966 261.507, 477.492 260.302 C 480.852 258.700, 481.071 258.711, 482.471 260.563 C 483.277 261.628, 483.951 263.063, 483.968 263.750 C 484.031 266.222, 485.855 264.936, 486.509 261.959 C 488.017 255.092, 480.620 251.365, 474.709 256.014 M 233.639 256.694 C 232.513 257.820, 232.954 259, 234.500 259 C 235.325 259, 236 258.577, 236 258.059 C 236 256.798, 234.438 255.895, 233.639 256.694 M 366.462 258.121 C 365.637 260.719, 365.915 260.936, 369.250 260.295 C 372.649 259.642, 372.746 258.661, 369.553 257.206 C 367.440 256.243, 367.018 256.368, 366.462 258.121 M 213.549 260.660 C 209.200 263.616, 209.587 264.089, 217.338 265.302 C 220.685 265.826, 221.085 265.685, 220.460 264.201 C 220.065 263.266, 219.523 261.488, 219.255 260.250 C 218.638 257.405, 218.304 257.429, 213.549 260.660 M 243 261.937 C 243 264.767, 243.136 264.853, 246.750 264.296 C 248.813 263.977, 250.636 263.607, 250.803 263.473 C 251.180 263.168, 244.498 259, 243.632 259 C 243.284 259, 243 260.322, 243 261.937 M 305.552 266.893 C 307.328 274.506, 310.141 281.858, 313.414 287.443 C 317.852 295.017, 318.029 293.490, 314.070 281.771 C 310.106 270.035, 306.112 261, 304.889 261 C 304.498 261, 304.796 263.652, 305.552 266.893 M 477.082 263.448 C 476.902 267.742, 479.329 293.595, 480.039 294.946 C 481.177 297.111, 485.101 283.763, 485.609 276 C 486.098 268.533, 484.555 270.237, 483.488 278.342 C 483.137 281.005, 482.628 282.961, 482.357 282.690 C 482.085 282.419, 481.408 278.911, 480.851 274.895 C 479.818 267.436, 477.242 259.615, 477.082 263.448 M 390 265.036 C 392.048 265.522, 393.894 265.480, 394.450 264.933 C 395.040 264.353, 393.716 264.039, 390.950 264.102 L 386.500 264.205 390 265.036 M 328 271.877 C 328 273.089, 336.640 276.692, 344.209 278.637 C 350.926 280.362, 367.481 280.080, 373.500 278.137 C 375.785 277.400, 373.617 277.166, 364.407 277.157 C 351.286 277.144, 343.305 276.029, 334.404 272.967 C 327.803 270.696, 328 270.729, 328 271.877 M 374 272.861 C 374 273.517, 375.643 274, 377.875 274 C 380.006 274, 383.269 274.285, 385.125 274.632 C 387.749 275.124, 388.248 274.994, 387.366 274.048 C 385.817 272.387, 374 271.338, 374 272.861 M 238.888 277.685 C 232.094 280.029, 226.579 281.194, 220.078 281.655 C 209.246 282.424, 209.866 283.974, 221 283.960 C 231.823 283.947, 240.985 281.353, 247.427 276.479 C 250.724 273.984, 248.836 274.251, 238.888 277.685 M 196.181 281.607 C 191.197 284.594, 191.179 286, 196.157 283.406 C 197.996 282.448, 201.300 281.095, 203.500 280.399 L 207.500 279.134 204 279.076 C 201.928 279.042, 198.738 280.075, 196.181 281.607 M 476.603 309.597 C 475.560 312.147, 473.243 316.149, 471.455 318.491 C 467.264 323.981, 465.667 327.005, 466.519 327.836 C 467.614 328.904, 474.046 320.958, 476.697 315.262 C 478.038 312.382, 478.992 308.886, 478.818 307.494 C 478.540 305.281, 478.262 305.545, 476.603 309.597 M 249.107 318.657 C 240.248 327.517, 243.645 342.204, 254.903 343.714 C 258.252 344.163, 259.123 344.009, 258.543 343.070 C 257.598 341.540, 263.295 344.339, 267.500 347.470 C 273.151 351.678, 276.793 353, 282.728 353 C 288.117 353, 293 351.177, 293 349.166 C 293 348.770, 289.434 348.458, 285.075 348.473 C 278.343 348.496, 276.724 348.162, 274.325 346.255 C 263.507 337.659, 257.688 335.261, 255.130 338.343 C 253.454 340.363, 251.276 339.435, 249.463 335.928 C 246.868 330.909, 248.352 322.584, 252.699 317.780 C 256.026 314.103, 252.897 314.867, 249.107 318.657 M 323.812 316.522 C 323.445 316.889, 324.010 318.609, 325.068 320.344 C 329.293 327.273, 326.491 336.122, 318.789 340.178 C 315.066 342.138, 314.799 342.483, 316.767 342.790 C 324.333 343.970, 331 337.161, 331 328.253 C 331 323.684, 330.560 322.490, 327.739 319.413 C 325.946 317.456, 324.178 316.155, 323.812 316.522 M 299.366 338.505 C 294.016 341.171, 289.285 345.440, 290.707 346.319 C 291.178 346.610, 294.464 345.565, 298.009 343.996 C 301.553 342.427, 307.018 340.846, 310.154 340.482 C 315.323 339.882, 317.907 338.240, 316.264 336.598 C 315.936 336.269, 313.130 336, 310.030 336 C 306.018 336, 302.943 336.722, 299.366 338.505 M 290 371.570 C 290 372.357, 289.325 373, 288.500 373 C 287.675 373, 287 372.495, 287 371.878 C 287 371.102, 286.536 371.140, 285.500 372 C 284.308 372.989, 284 372.990, 284 372.004 C 284 371.293, 282.467 371.932, 280.415 373.497 C 277.825 375.472, 276.528 375.928, 275.739 375.139 C 274.950 374.350, 274.235 374.388, 273.161 375.274 C 271.985 376.244, 271.587 376.239, 271.254 375.251 C 270.933 374.295, 270.333 374.353, 268.695 375.501 C 265.749 377.565, 263.632 377.441, 264.395 375.250 C 264.973 373.592, 264.934 373.592, 263.654 375.234 C 262.910 376.188, 262.020 376.687, 261.675 376.342 C 261.330 375.997, 260.362 376.284, 259.524 376.980 C 258.399 377.914, 258 377.936, 258 377.063 C 258 376.362, 257.493 376.204, 256.750 376.676 C 254.989 377.794, 251.627 377.749, 250.826 376.598 C 250.411 376.001, 249.537 376.139, 248.552 376.957 C 247.672 377.687, 246.661 377.994, 246.306 377.639 C 245.950 377.284, 244.599 377.688, 243.302 378.538 C 242.005 379.388, 240.548 379.839, 240.064 379.540 C 239.580 379.241, 238.131 379.439, 236.842 379.980 C 235.259 380.645, 240.507 380.764, 253.035 380.348 C 265.229 379.943, 274.466 380.138, 280.035 380.919 C 287.068 381.906, 290.233 381.844, 298.743 380.553 C 305.258 379.565, 316.542 378.964, 329.743 378.900 C 341.160 378.845, 351.625 378.440, 353 378 C 355.177 377.303, 355.242 377.166, 353.500 376.941 C 352.400 376.799, 350.653 376.760, 349.617 376.853 C 348.581 376.947, 347.175 376.561, 346.493 375.995 C 345.811 375.429, 344.505 375.253, 343.590 375.604 C 342.621 375.976, 341.087 375.484, 339.920 374.427 C 338.136 372.813, 337.986 372.800, 338.564 374.306 C 339.343 376.335, 336.102 376.702, 334.200 374.800 C 333.379 373.979, 333 373.950, 333 374.706 C 333 375.934, 329.251 375.299, 327.250 373.733 C 326.362 373.038, 326 373.225, 326 374.378 C 326 376.757, 324.239 376.361, 321.452 373.354 C 319.183 370.905, 319 370.860, 319 372.747 C 319 374.900, 316.526 376.443, 314.792 375.371 C 312.444 373.920, 307.082 373.253, 306.707 374.365 C 306.436 375.172, 305.862 375.118, 304.727 374.181 C 303.500 373.169, 302.636 373.124, 301.018 373.990 C 299.289 374.916, 298.104 374.670, 294.454 372.630 C 291.087 370.748, 290 370.490, 290 371.570 M 358.393 383.265 C 357.235 383.944, 354.310 386.006, 351.893 387.846 C 341.991 395.388, 322.850 403.349, 306.795 406.602 C 290.657 409.872, 268.129 406.718, 253.194 399.099 C 249.266 397.095, 233.074 385.395, 231.889 383.704 C 230.927 382.331, 229.825 386, 229.396 392 C 229.102 396.119, 229.275 397.123, 230.083 396 C 231.157 394.506, 230.968 397.387, 229.361 407 C 228.805 410.331, 228.852 410.404, 230.356 408.500 C 232.255 406.097, 232.513 407.725, 231.046 412.841 C 230.261 415.577, 230.329 415.972, 231.429 415.059 C 233.191 413.596, 234.247 416.170, 233.349 419.744 C 232.816 421.870, 232.993 422.216, 234.350 421.696 C 236.286 420.953, 236.462 422.264, 234.836 425.316 C 233.779 427.301, 233.827 427.373, 235.360 426.107 C 237.786 424.106, 238.553 425.506, 236.635 428.434 C 234.346 431.928, 234.600 432.709, 237.250 430.323 C 241.477 426.518, 241.898 426.636, 241.366 431.477 C 240.939 435.358, 241.099 435.899, 242.510 435.358 C 243.577 434.948, 244.082 435.213, 243.957 436.114 C 243.549 439.030, 244.040 441.093, 245 440.500 C 245.555 440.157, 246.006 440.909, 246.014 442.191 C 246.039 446.477, 247.111 448.894, 248.715 448.279 C 249.998 447.787, 250.047 448.043, 249.035 449.934 C 248.377 451.165, 248.089 452.422, 248.395 452.729 C 248.702 453.035, 249.236 452.549, 249.581 451.649 C 250.451 449.382, 252.224 450.720, 251.475 453.078 C 251.016 454.524, 251.249 454.842, 252.435 454.387 C 253.430 454.005, 254 454.337, 254 455.299 C 254 456.357, 254.649 456.643, 256.156 456.249 C 257.634 455.862, 258.088 456.049, 257.597 456.842 C 256.662 458.356, 258.262 458.338, 259.783 456.817 C 261.623 454.977, 262.456 456.703, 261.132 459.611 L 259.938 462.230 263.181 459.501 C 266.578 456.643, 267.935 457.384, 265.984 461.030 C 265.354 462.208, 265.039 463.372, 265.284 463.618 C 265.530 463.863, 266.282 462.732, 266.957 461.104 C 267.631 459.476, 269.088 457.326, 270.194 456.325 C 272.060 454.636, 275 449.858, 275 448.514 C 275 448.193, 274.127 448.397, 273.061 448.968 C 270.839 450.156, 269.677 449.005, 270.619 446.549 C 271.029 445.482, 270.775 445.019, 269.884 445.209 C 268.921 445.415, 268.621 444.634, 268.859 442.546 C 269.149 440.009, 268.983 439.769, 267.687 440.845 C 266.598 441.749, 265.986 441.787, 265.489 440.982 C 265.110 440.369, 265.062 439.605, 265.382 439.285 C 265.702 438.965, 265.074 437.931, 263.987 436.988 C 262.173 435.416, 262.121 434.953, 263.355 431.387 C 264.329 428.572, 265.293 427.469, 266.850 427.387 C 268.033 427.324, 269 427.692, 269 428.204 C 269 428.716, 269.900 428.849, 271 428.500 C 272.461 428.036, 273 428.320, 273 429.555 C 273 430.937, 273.271 431.020, 274.487 430.011 C 275.444 429.217, 276.959 429.051, 278.737 429.547 C 280.257 429.971, 282.288 430.218, 283.250 430.096 C 284.212 429.974, 285 430.408, 285 431.060 C 285 431.930, 285.352 431.953, 286.324 431.146 C 287.194 430.424, 287.986 430.386, 288.633 431.033 C 289.281 431.681, 291.228 431.535, 294.310 430.607 C 296.889 429.831, 299 429.574, 299 430.036 C 299 430.498, 299.900 430.808, 301 430.725 C 302.100 430.642, 303 430.333, 303 430.037 C 303.001 429.209, 311.738 429.404, 312.585 430.251 C 313.819 431.485, 315 431.101, 315 429.465 C 315 426.820, 318.994 429.740, 320.585 433.548 C 322.285 437.618, 322.430 440.384, 320.893 439.434 C 320.148 438.973, 320.006 439.445, 320.460 440.875 C 321.202 443.212, 320.074 443.674, 318.200 441.800 C 317.267 440.867, 317 441.356, 317 444 C 317 446.538, 316.712 447.112, 315.864 446.264 C 315.017 445.417, 314.382 445.475, 313.364 446.493 C 311.652 448.205, 311.669 449.498, 313.471 454.500 C 314.483 457.309, 314.925 457.830, 314.956 456.250 C 315.023 452.814, 316.497 453.558, 318.522 458.048 C 320.919 463.365, 321.658 463.673, 321.239 459.180 L 320.895 455.500 322.948 457.861 L 325 460.222 325.007 457.861 C 325.013 455.593, 325.091 455.618, 327 458.500 L 328.987 461.500 328.993 458.128 C 328.999 455.244, 329.217 454.935, 330.500 456 C 331.759 457.045, 332 456.878, 332 454.967 C 332 452.714, 332.022 452.710, 334.133 454.595 C 336.244 456.480, 336.259 456.477, 335.592 454.334 C 334.636 451.258, 336.550 450.541, 338.529 453.233 C 340.184 455.486, 340.191 455.479, 339.736 452.014 C 339.350 449.082, 339.914 446.917, 341.818 444.015 C 341.994 443.748, 343.042 444.648, 344.149 446.015 L 346.161 448.500 345.578 443.593 C 345.019 438.887, 345.070 438.754, 346.824 440.341 C 348.564 441.916, 348.631 441.843, 348.192 438.856 C 347.859 436.589, 348.064 435.922, 348.929 436.456 C 349.818 437.006, 349.953 436.268, 349.452 433.598 C 348.715 429.670, 349.494 429.027, 351.692 431.750 C 352.995 433.366, 353.061 433.327, 352.552 431.250 C 352.248 430.012, 351.745 428.100, 351.433 427 C 350.669 424.308, 352.398 424.461, 354.250 427.250 C 355.690 429.419, 355.772 429.303, 356.538 424 C 357.199 419.423, 357.455 418.919, 358.066 421 C 358.610 422.851, 358.827 422.088, 358.900 418.059 C 358.991 413.134, 359.133 412.800, 360.403 414.536 C 361.657 416.252, 361.747 415.939, 361.256 411.577 C 360.876 408.211, 361.042 406.908, 361.789 407.370 C 362.553 407.841, 362.699 405.366, 362.287 398.994 C 361.753 390.755, 361.852 390.006, 363.401 390.600 C 364.843 391.154, 364.997 390.815, 364.412 388.376 C 363.551 384.781, 362.151 381.995, 361.215 382.015 C 360.822 382.023, 359.552 382.585, 358.393 383.265 M 307.689 383.644 C 306.345 384.988, 290.667 385.376, 268.250 384.619 C 249.105 383.973, 249.627 383.778, 252.452 390.538 C 253.265 392.484, 254.982 394.423, 256.354 394.945 C 257.703 395.457, 259.104 396.359, 259.469 396.949 C 259.833 397.539, 261.339 397.969, 262.816 397.905 C 265.363 397.793, 268.888 398.466, 278.892 400.973 C 284.017 402.258, 302.842 401.558, 304.374 400.026 C 304.938 399.462, 307.235 399, 309.477 399 C 311.720 399, 314.549 398.304, 315.765 397.452 C 317.245 396.416, 319.062 396.109, 321.269 396.523 C 323.833 397.004, 324.975 396.685, 326.422 395.086 C 327.721 393.651, 328.995 393.212, 330.653 393.628 C 331.998 393.965, 333.714 393.652, 334.614 392.905 C 335.487 392.181, 336.854 391.492, 337.651 391.375 C 339.898 391.045, 341.753 389.148, 342.819 386.089 L 343.793 383.295 326.003 383.207 C 316.219 383.159, 307.978 383.356, 307.689 383.644 M 375.136 401.450 C 374.999 406.434, 376.094 406.748, 377.495 402.125 C 377.962 400.582, 377.851 399.974, 377.179 400.390 C 376.609 400.742, 375.947 400.010, 375.708 398.765 C 375.468 397.519, 375.211 398.728, 375.136 401.450 M 435.160 415.108 C 433.450 420.987, 426.174 434.226, 425.038 433.524 C 424.564 433.231, 421.591 438.045, 418.431 444.222 C 414.088 452.713, 412.525 454.996, 412.027 453.576 C 411.473 451.999, 410.944 452.405, 408.735 456.099 C 407.287 458.519, 404.919 461.850, 403.471 463.500 C 401.013 466.303, 400.922 466.065, 402.615 461.250 C 402.954 460.288, 401.017 462.997, 398.310 467.270 C 395.604 471.544, 391.704 477.057, 389.645 479.520 C 385.664 484.283, 382.651 485.708, 385.385 481.535 C 390.361 473.940, 381.969 483.127, 373.596 494.439 C 370.899 498.083, 368.261 500.920, 367.734 500.745 C 367.206 500.569, 365.296 501.904, 363.487 503.712 C 359.889 507.311, 357.384 508.074, 358.442 505.250 C 358.802 504.288, 356.298 506.313, 352.877 509.750 C 349.456 513.188, 346.284 516, 345.829 516 C 344.617 516, 344.816 514.600, 346.250 513.038 C 346.938 512.289, 346.002 512.762, 344.172 514.088 C 333.643 521.718, 331.638 523, 330.236 523 C 328.952 523, 329.013 522.634, 330.595 520.842 C 332.053 519.191, 330.951 519.544, 325.904 522.342 C 319.454 525.919, 316 526.887, 316 525.118 C 316 524.633, 314.313 524.838, 312.250 525.574 C 307.844 527.146, 304.773 527.341, 303.450 526.132 C 302.928 525.655, 300.925 525.010, 299 524.700 C 297.075 524.389, 296.063 524.367, 296.750 524.651 C 299.778 525.900, 297.509 526.881, 291.750 526.813 C 286.965 526.757, 284.159 526.067, 279.779 523.870 C 273.291 520.616, 272.227 520.363, 274 522.500 C 274.898 523.582, 274.923 524, 274.090 524 C 271.502 524, 266.082 521.006, 260.459 516.470 C 257.181 513.827, 255.400 512.752, 256.500 514.082 C 257.600 515.412, 259.063 516.860, 259.750 517.300 C 260.438 517.740, 261 518.543, 261 519.085 C 261 520.644, 257.063 518.232, 250.750 512.805 C 247.588 510.087, 245 508.106, 245 508.404 C 245 508.702, 246.350 516.845, 248 526.500 C 250.974 543.902, 252.018 562, 250.047 562 C 248.912 562, 247.936 558.644, 244.948 544.476 C 242.563 533.163, 241.029 532.194, 241.033 542 C 241.035 549.219, 243.310 559.726, 246.018 565.036 C 257.700 587.935, 294.281 595.626, 330.814 582.865 C 355.094 574.383, 395.410 549.898, 414.054 532.311 C 428.399 518.778, 449.596 490.411, 452.904 480.319 C 454.267 476.162, 454.254 476.115, 450.629 471.880 C 448.624 469.537, 446.200 465.918, 445.242 463.836 C 444.284 461.755, 443.163 460.040, 442.750 460.026 C 442.337 460.012, 441.971 464.163, 441.937 469.250 C 441.893 475.616, 441.599 477.819, 440.993 476.316 C 439.113 471.649, 437.731 456.522, 437.129 434 C 436.545 412.169, 436.405 410.827, 435.160 415.108 M 262.012 418.826 C 262.031 419.841, 268.034 423.491, 272 424.898 C 277.605 426.887, 292.417 427.937, 301.555 426.994 C 307.611 426.369, 311.781 425.252, 316.550 422.976 C 320.184 421.242, 322.918 419.584, 322.626 419.292 C 322.334 419, 318.811 419.603, 314.797 420.631 C 309.041 422.105, 303.910 422.494, 290.500 422.470 C 275.620 422.443, 272.783 422.172, 267.750 420.295 C 264.587 419.116, 262.006 418.455, 262.012 418.826 M 260.630 428.250 C 260.299 429.488, 260.035 430.950, 260.045 431.500 C 260.072 432.988, 263 428.835, 263 427.309 C 263 425.149, 261.278 425.833, 260.630 428.250 M 323.033 427.095 C 323.015 427.972, 323.900 429.505, 325 430.500 C 327.575 432.830, 327.598 430.940, 325.033 427.861 C 323.539 426.067, 323.059 425.883, 323.033 427.095 M 319 427.768 C 319 428.190, 320.226 430.328, 321.724 432.518 C 323.785 435.531, 324.532 436.076, 324.796 434.756 C 325.170 432.886, 321.478 427, 319.932 427 C 319.419 427, 319 427.346, 319 427.768 M 308.601 451.666 C 309.521 455.498, 310 455.860, 310 452.726 C 310 451.291, 309.532 449.829, 308.960 449.475 C 308.278 449.054, 308.154 449.808, 308.601 451.666" stroke="none" fill="black" fill-rule="evenodd"/>
</svg>